Coordinates
version=1
nRows=8
nColumns=63
inDegrees=yes

Units are S.I. units (second, meters, Newtons, ...)
If the header above contains a line with 'inDegrees', this indicates whether rotational values are in degrees (yes) or radians (no).

endheader
time	pelvis_tilt	pelvis_list	pelvis_rotation	pelvis_tx	pelvis_ty	pelvis_tz	hip_flexion_r	hip_adduction_r	hip_rotation_r	knee_angle_r	knee_angle_r_beta	ankle_angle_r	subtalar_angle_r	mtp_angle_r	hip_flexion_l	hip_adduction_l	hip_rotation_l	knee_angle_l	knee_angle_l_beta	ankle_angle_l	subtalar_angle_l	mtp_angle_l	L5_S1_Flex_Ext	L5_S1_Lat_Bending	L5_S1_axial_rotation	L4_L5_Flex_Ext	L4_L5_Lat_Bending	L4_L5_axial_rotation	L3_L4_Flex_Ext	L3_L4_Lat_Bending	L3_L4_axial_rotation	L2_L3_Flex_Ext	L2_L3_Lat_Bending	L2_L3_axial_rotation	L1_L2_Flex_Ext	L1_L2_Lat_Bending	L1_L2_axial_rotation	L1_T12_Flex_Ext	L1_T12_Lat_Bending	L1_T12_axial_rotation	Abs_r3	Abs_r2	Abs_r1	Abs_t1	Abs_t2	neck_flexion	neck_bending	neck_rotation	arm_flex_r	arm_add_r	arm_rot_r	elbow_flex_r	pro_sup_r	wrist_flex_r	wrist_dev_r	arm_flex_l	arm_add_l	arm_rot_l	elbow_flex_l	pro_sup_l	wrist_flex_l	wrist_dev_l
      2.41379310	     -5.94491170	     -5.32440799	    101.80271351	      0.06819154	      0.46013330	      0.84911160	      5.82494195	     -3.54218575	    -16.62950771	      7.08840910	      0.12371608	     30.27874070	     15.99579888	      0.00000000	      8.97331386	      2.94985625	     -2.09503368	      9.80076405	      0.17105560	     24.76470655	      7.40950526	      0.00000000	     -0.18659573	     -0.82790207	     -2.00357515	     -0.34652693	     -1.10110975	     -2.12879860	     -0.30655812	     -2.01296108	     -2.12879860	     -0.21326026	     -2.01296108	     -1.75312826	     -0.17327279	     -1.68825789	     -1.62790481	     -0.10662080	     -1.28242030	     -1.50268136	     -1.33283463	     -9.36539374	    -11.14328391	      0.00000000	      0.00000000	     -0.04138792	      2.54370387	     -0.73582316	     60.67924447	    -34.58215275	     22.37505903	    143.73788406	     75.65887966	      8.96682439	     14.11057517	     -4.30426221	    -14.26073086	     24.93609694	     78.78044494	     89.28121856	     15.05631078	     17.54594610
      2.43103448	     -5.91988527	     -5.23809620	    101.70465795	      0.06860157	      0.46047256	      0.84898940	      5.69608459	     -3.46364258	    -16.72065336	      6.94093833	      0.12114223	     30.17089122	     16.26237729	      0.00000000	      8.91732261	      2.70986674	     -3.98986452	     10.01070337	      0.17471973	     24.87281996	      9.69156263	      0.00000000	     -0.16532103	     -0.83133489	     -1.88182833	     -0.30701768	     -1.10567540	     -1.99944260	     -0.27160592	     -2.02130765	     -1.99944260	     -0.18894540	     -2.02130765	     -1.64659978	     -0.15351711	     -1.69525811	     -1.52898551	     -0.09446444	     -1.28773775	     -1.41137124	     -1.18087157	     -9.40422655	    -10.46616460	      0.00000000	      0.00000000	     -0.04181261	      2.64712106	     -1.69336851	     60.03904116	    -35.45632250	     22.23097155	    143.86861040	     77.88774323	      7.08947163	     14.81400943	     -3.66552080	    -14.35671047	     25.83575525	     78.02921563	     89.28150429	     14.60547802	     16.94868387
      2.44827586	     -5.81965836	     -5.18843180	    101.90657222	      0.06842393	      0.46064341	      0.84889725	      5.56571992	     -3.32909686	    -16.67275900	      6.75680733	      0.11792853	     30.03804241	     15.97545003	      0.00000000	      8.86004460	      2.66224485	     -3.24216598	     10.02070693	      0.17489433	     24.59376647	      8.96215419	      0.00000000	     -0.13654753	     -0.82669314	     -1.82191766	     -0.25358241	     -1.09950188	     -1.93578751	     -0.22433393	     -2.01002171	     -1.93578751	     -0.15606017	     -2.01002171	     -1.59417795	     -0.12679803	     -1.68579266	     -1.48030810	     -0.07802326	     -1.28054768	     -1.36643825	     -0.97534532	     -9.35171816	    -10.13295945	      0.00000000	      0.00000000	      0.08665540	      2.42229019	     -3.02121028	     59.28713520	    -36.17603402	     21.59685308	    143.89389813	     78.88316656	      7.11359179	     16.70749624	     -3.01618466	    -14.21767078	     26.48807722	     77.25468601	     89.25602300	     14.02718252	     16.55222124
      2.46551724	     -5.77972677	     -5.10845624	    101.84815037	      0.06861045	      0.46065226	      0.84875340	      5.50589723	     -3.27585099	    -16.82418746	      6.75004313	      0.11781048	     30.07634695	     16.24575999	      0.00000000	      8.74122283	      2.65013582	     -2.57079087	     10.00946139	      0.17469806	     24.30801610	      8.00114281	      0.00000000	     -0.11447440	     -0.82604391	     -1.73398093	     -0.21259041	     -1.09863840	     -1.84235474	     -0.18806999	     -2.00844317	     -1.84235474	     -0.13083279	     -2.00844317	     -1.51723332	     -0.10630093	     -1.68446874	     -1.40885951	     -0.06541067	     -1.27954202	     -1.30048570	     -0.81767919	     -9.34437393	     -9.64388175	      0.00000000	      0.00000000	      0.52362080	      2.10417615	     -4.28996523	     58.58291312	    -36.95980573	     21.41386846	    143.90776797	     80.14434637	      6.31785604	     18.28170662	     -2.39489421	    -14.04676600	     27.10051904	     76.59407854	     89.19372312	     12.40923010	     15.82356927
      2.48275862	     -5.80610175	     -5.07244557	    101.84946545	      0.06893401	      0.46050821	      0.84837214	      5.45552455	     -3.27896096	    -16.80066008	      6.74107808	      0.11765401	     30.15740041	     16.26342857	      0.00000000	      8.67524681	      2.63554197	     -2.50215000	     10.07156038	      0.17578189	     24.10745250	      7.98861014	      0.00000000	     -0.08041188	     -0.83061869	     -1.73312837	     -0.14933290	     -1.10472285	     -1.84144889	     -0.13210868	     -2.01956628	     -1.84144889	     -0.09190274	     -2.01956628	     -1.51648732	     -0.07467047	     -1.69379763	     -1.40816680	     -0.04594735	     -1.28662835	     -1.29984628	     -0.57437402	     -9.39612472	     -9.63914004	      0.00000000	      0.00000000	      1.05103315	      2.02800739	     -4.55291832	     58.01491205	    -37.29755925	     21.73175655	    143.44383884	     80.35457362	      6.43258202	     18.56493649	     -2.08899731	    -13.74098867	     26.76914087	     76.09881083	     89.10238967	     12.13170119	     15.88278914
      2.50000000	     -5.70598541	     -5.08665092	    101.83535571	      0.06900664	      0.46025304	      0.84840605	      5.53058272	     -3.19196915	    -16.83444474	      6.76933736	      0.11814723	     30.14773869	     16.34645601	      0.00000000	      8.66494092	      2.62529592	     -1.40147132	     10.01298482	      0.17475955	     23.67381529	      6.39494142	      0.00000000	     -0.05976804	     -0.83223308	     -1.65590790	     -0.11099523	     -1.10687000	     -1.75940215	     -0.09819292	     -2.02349152	     -1.75940215	     -0.06830890	     -2.02349152	     -1.44891942	     -0.05550060	     -1.69708970	     -1.34542517	     -0.03415146	     -1.28912904	     -1.24193093	     -0.42691715	     -9.41438708	     -9.20966299	      0.00000000	      0.00000000	      1.84601824	      1.38777391	     -6.86817232	     56.87789525	    -37.99601013	     20.80357011	    143.84249946	     82.56463074	      7.43370329	     20.04411055	     -1.65459171	    -13.34353718	     26.98627526	     75.68197752	     88.96286741	      9.75751731	     15.69597237
      2.51724138	     -5.70898484	     -5.10345658	    101.85975683	      0.06899438	      0.46003414	      0.84840480	      5.54580444	     -3.21154817	    -16.77178139	      6.73270933	      0.11750795	     30.18946492	     16.36689358	      0.00000000	      8.68513952	      2.63526840	     -1.30738665	     10.04041483	      0.17523830	     23.49708578	      6.24421774	      0.00000000	     -0.03852154	     -0.83187625	     -1.65774782	     -0.07153835	     -1.10639541	     -1.76135706	     -0.06328703	     -2.02262392	     -1.76135706	     -0.04402627	     -2.02262392	     -1.45052934	     -0.03577110	     -1.69636205	     -1.34692010	     -0.02201121	     -1.28857631	     -1.24331086	     -0.27515549	     -9.41035052	     -9.21989604	      0.00000000	      0.00000000	      2.64596215	      1.22073257	     -7.16608649	     56.21977121	    -38.47521921	     21.10358070	    143.78716076	     82.91327192	      7.80539418	     20.23508354	     -1.48607467	    -12.91535404	     26.39540687	     75.25961386	     88.81604324	      9.26505977	     15.76477055
      2.53448276	     -5.57058868	     -5.13815439	    101.85273139	      0.06913293	      0.45973340	      0.84834733	      5.62454204	     -3.07970605	    -16.67583386	      6.72302438	      0.11733891	     30.17581247	     16.36421840	      0.00000000	      8.73938529	      2.51267123	     -0.95347971	      9.99007599	      0.17435972	     23.57900806	      5.84565532	      0.00000000	     -0.02364439	     -0.82218124	     -1.63750683	     -0.04390999	     -1.09350105	     -1.73985100	     -0.03884536	     -1.99905146	     -1.73985100	     -0.02702317	     -1.99905146	     -1.43281847	     -0.02195618	     -1.67659198	     -1.33047430	     -0.01351040	     -1.27355874	     -1.22813012	     -0.16888948	     -9.30067860	     -9.10732172	      0.00000000	      0.00000000	      3.35930110	      1.04966064	     -8.03714279	     55.38185308	    -39.12554693	     21.06845797	    143.85662839	     83.96482768	      9.10798593	     20.52088448	     -1.51326985	    -12.56884260	     25.86726456	     75.15938407	     88.75345801	      8.24767700	     15.84238549
